<svg width="1400" height="880" viewBox="0 0 1400 880" xmlns="http://www.w3.org/2000/svg" font-family="Arial, Helvetica, sans-serif">
  <rect x="0" y="0" width="1400" height="880" fill="#ffffff"/>
  <defs>
    <style>
      .wall { fill:none; stroke:#111; stroke-width:3; stroke-linejoin:round; }
      .partition { fill:none; stroke:#333; stroke-width:1.4; }
      .room { fill:#f7f7f7; stroke:#333; stroke-width:1.2; }
      .roomAlt { fill:#eef2f6; stroke:#333; stroke-width:1.2; }
      .lid { fill:#e3e3e3; stroke:#666; stroke-width:1; }
      .voidzone { fill:#fbfbfb; stroke:#999; stroke-width:1.2; stroke-dasharray:6 4; }
      .grid { stroke:#9aa; stroke-width:1; stroke-dasharray:4 4; }
      .bubble { fill:#ffffff; stroke:#111; stroke-width:1.4; }
      .label-room { font-size:14px; font-weight:700; fill:#111; text-anchor:middle; }
      .label-sub { font-size:11px; fill:#333; text-anchor:middle; }
      .label-small { font-size:8.5px; fill:#333; text-anchor:middle; }
      .label-tag { font-size:11px; fill:#111; text-anchor:middle; }
      .label-title { font-size:22px; fill:#111; font-weight:800; }
    </style>
  </defs>

  <text x="40" y="35" class="label-title">LEVEL 3 FLOOR PLAN</text>

  <g transform="translate(1330,45)">
    <circle cx="0" cy="0" r="24" fill="#fff" stroke="#111" stroke-width="1.3"/>
    <polygon points="0,-18 5,4 0,-2 -5,4" fill="#111"/>
    <text x="0" y="16" text-anchor="middle" font-size="10" font-weight="700">N</text>
  </g>

  <!-- top grid -->
  <line x1="150" y1="110" x2="150" y2="760" class="grid"/>
  <circle cx="150" cy="105" r="15" class="bubble"/><text x="150" y="109" class="label-tag">15</text>
  <line x1="228" y1="110" x2="228" y2="760" class="grid"/>
  <circle cx="228" cy="105" r="15" class="bubble"/><text x="228" y="109" class="label-tag" font-size="9">X8</text>
  <line x1="256" y1="110" x2="256" y2="760" class="grid"/>
  <circle cx="256" cy="105" r="15" class="bubble"/><text x="256" y="109" class="label-tag" font-size="9">X7</text>
  <line x1="1180" y1="110" x2="1180" y2="760" class="grid"/>
  <circle cx="1180" cy="105" r="15" class="bubble"/><text x="1180" y="109" class="label-tag">1</text>

  <!-- left grid -->
  <line x1="100" y1="185" x2="1230" y2="185" class="grid"/>
  <circle cx="70" cy="185" r="14" class="bubble"/><text x="70" y="189" class="label-tag">F</text>
  <line x1="100" y1="290" x2="1230" y2="290" class="grid"/>
  <circle cx="70" cy="290" r="14" class="bubble"/><text x="70" y="294" class="label-tag" font-size="8.5">XE.2</text>
  <line x1="100" y1="322" x2="1230" y2="322" class="grid"/>
  <circle cx="70" cy="322" r="14" class="bubble"/><text x="70" y="326" class="label-tag" font-size="9">XE</text>
  <line x1="100" y1="388" x2="1230" y2="388" class="grid"/>
  <circle cx="70" cy="388" r="14" class="bubble"/><text x="70" y="392" class="label-tag" font-size="9">XD</text>
  <line x1="100" y1="440" x2="1230" y2="440" class="grid"/>
  <circle cx="70" cy="440" r="14" class="bubble"/><text x="70" y="444" class="label-tag" font-size="9">XC</text>
  <line x1="100" y1="570" x2="1230" y2="570" class="grid"/>
  <circle cx="70" cy="570" r="14" class="bubble"/><text x="70" y="574" class="label-tag" font-size="9">XB</text>
  <circle cx="1260" cy="570" r="14" class="bubble"/><text x="1260" y="574" class="label-tag" font-size="9">XB</text>
  <line x1="100" y1="602" x2="1230" y2="602" class="grid"/>
  <circle cx="70" cy="602" r="14" class="bubble"/><text x="70" y="606" class="label-tag" font-size="9">XA</text>
  <circle cx="1260" cy="602" r="14" class="bubble"/><text x="1260" y="606" class="label-tag" font-size="9">XA</text>
  <line x1="100" y1="745" x2="1230" y2="745" class="grid"/>
  <circle cx="70" cy="745" r="14" class="bubble"/><text x="70" y="749" class="label-tag">A</text>

  <!-- building outline -->
  <path class="wall" d="M150,180
      L150,130 L330,130 L330,440
      L830,440
      L940,530
      L1150,530
      Q1220,530 1220,600
      L1220,655
      L1150,710
      L340,710
      L150,710
      Q95,710 95,655
      L95,570
      Q95,520 150,510
      Z" fill="#ffffff"/>

  <!-- adjacent building context -->
  <rect x="360" y="185" width="820" height="240" class="voidzone"/>
  <text x="770" y="300" class="label-sub" font-style="italic">(E) 2-STORY BUILDING</text>
  <text x="770" y="316" class="label-small">(shown for context only)</text>

  <!-- left wing units -->
  <rect x="150" y="130" width="90" height="115" class="room" data-unit="303"/>
  <text x="195" y="182" class="label-room">UNIT E</text><text x="195" y="199" class="label-sub">303</text>
  <rect x="240" y="130" width="90" height="115" class="room" data-unit="302"/>
  <text x="285" y="182" class="label-room">UNIT P</text><text x="285" y="199" class="label-sub">302</text>

  <line x1="150" y1="245" x2="330" y2="245" class="partition"/>
  <rect x="150" y="245" width="90" height="105" class="room" data-unit="304"/>
  <text x="195" y="292" class="label-room">UNIT D</text><text x="195" y="309" class="label-sub">304</text>
  <rect x="240" y="245" width="90" height="105" class="room" data-unit="301"/>
  <text x="285" y="292" class="label-room">UNIT C</text><text x="285" y="309" class="label-sub">301</text>

  <line x1="150" y1="350" x2="330" y2="350" class="partition"/>
  <rect x="150" y="350" width="90" height="90" class="room" data-unit="305"/>
  <text x="195" y="390" class="label-room">UNIT D</text><text x="195" y="407" class="label-sub">305</text>
  <rect x="240" y="350" width="90" height="48" class="roomAlt"/>
  <text x="285" y="378" class="label-sub" font-weight="700">STAIR A</text>
  <rect x="240" y="398" width="90" height="42" class="roomAlt"/>
  <text x="285" y="423" class="label-sub" font-weight="700">ELEV</text>

  <line x1="150" y1="440" x2="330" y2="440" class="partition"/>
  <rect x="150" y="440" width="180" height="70" class="room" data-unit="306"/>
  <text x="240" y="470" class="label-room">UNIT F</text><text x="240" y="487" class="label-sub">306</text>

  <rect x="150" y="510" width="180" height="60" class="room" data-unit="307"/>
  <text x="240" y="534" class="label-room">UNIT J</text><text x="240" y="551" class="label-sub">307</text>

  <!-- corridor -->
  <rect x="150" y="570" width="1030" height="32" fill="#fafafa" stroke="#888" stroke-width="1"/>
  <text x="665" y="590" class="label-small" font-style="italic">CORRIDOR</text>

  <!-- lower row A/A/A/O/O/M -->
  <rect x="330" y="602" width="115" height="108" class="room" data-unit="308"/>
  <text x="387" y="650" class="label-room">UNIT A</text><text x="387" y="667" class="label-sub">308</text>
  <line x1="445" y1="602" x2="445" y2="710" class="partition"/>
  <rect x="445" y="602" width="115" height="108" class="room" data-unit="309"/>
  <text x="502" y="650" class="label-room">UNIT A</text><text x="502" y="667" class="label-sub">309</text>
  <line x1="560" y1="602" x2="560" y2="710" class="partition"/>
  <rect x="560" y="602" width="115" height="108" class="room" data-unit="310"/>
  <text x="617" y="650" class="label-room">UNIT A</text><text x="617" y="667" class="label-sub">310</text>
  <line x1="675" y1="602" x2="675" y2="710" class="partition"/>
  <rect x="675" y="602" width="115" height="108" class="room" data-unit="311"/>
  <text x="732" y="650" class="label-room">UNIT O</text><text x="732" y="667" class="label-sub">311</text>
  <line x1="790" y1="602" x2="790" y2="710" class="partition"/>
  <rect x="790" y="602" width="115" height="108" class="room" data-unit="312"/>
  <text x="847" y="650" class="label-room">UNIT O</text><text x="847" y="667" class="label-sub">312</text>
  <line x1="905" y1="602" x2="905" y2="710" class="partition"/>
  <rect x="905" y="602" width="205" height="108" class="room" data-unit="313"/>
  <text x="1007" y="650" class="label-room">UNIT M</text><text x="1007" y="667" class="label-sub">313</text>

  <!-- upper row B/B/B/B/StairB/N/M -->
  <rect x="330" y="440" width="115" height="122" class="room" data-unit="319"/>
  <text x="387" y="495" class="label-room">UNIT B</text><text x="387" y="512" class="label-sub">319</text>
  <line x1="445" y1="440" x2="445" y2="562" class="partition"/>
  <rect x="445" y="440" width="115" height="122" class="room" data-unit="318"/>
  <text x="502" y="495" class="label-room">UNIT B</text><text x="502" y="512" class="label-sub">318</text>
  <line x1="560" y1="440" x2="560" y2="562" class="partition"/>
  <rect x="560" y="440" width="115" height="122" class="room" data-unit="317"/>
  <text x="617" y="495" class="label-room">UNIT B</text><text x="617" y="512" class="label-sub">317</text>
  <line x1="675" y1="440" x2="675" y2="562" class="partition"/>
  <rect x="675" y="440" width="115" height="122" class="room" data-unit="316"/>
  <text x="732" y="495" class="label-room">UNIT B</text><text x="732" y="512" class="label-sub">316</text>
  <line x1="790" y1="440" x2="790" y2="562" class="partition"/>
  <rect x="790" y="440" width="65" height="122" class="roomAlt"/>
  <text x="822" y="505" class="label-sub" font-weight="700">STAIR B</text>
  <line x1="855" y1="440" x2="855" y2="562" class="partition"/>
  <rect x="855" y="440" width="115" height="122" class="room" data-unit="315"/>
  <text x="912" y="495" class="label-room">UNIT N</text><text x="912" y="512" class="label-sub">315</text>
  <line x1="970" y1="440" x2="970" y2="562" class="partition"/>
  <rect x="970" y="440" width="140" height="122" class="room" data-unit="314"/>
  <text x="1040" y="495" class="label-room">UNIT M</text><text x="1040" y="512" class="label-sub">314</text>

  <!-- LID -->
  <rect x="200" y="220" width="16" height="16" class="lid"/><text x="208" y="232" class="label-small" font-size="7">LID</text>
  <rect x="332" y="565" width="16" height="16" class="lid"/><text x="340" y="577" class="label-small" font-size="7">LID</text>
  <rect x="447" y="565" width="16" height="16" class="lid"/><text x="455" y="577" class="label-small" font-size="7">LID</text>
  <rect x="562" y="565" width="16" height="16" class="lid"/><text x="570" y="577" class="label-small" font-size="7">LID</text>
  <rect x="677" y="565" width="16" height="16" class="lid"/><text x="685" y="577" class="label-small" font-size="7">LID</text>

  <!-- small legend -->
  <g transform="translate(40,780)">
    <rect x="0" y="0" width="420" height="70" fill="#fff" stroke="#111" stroke-width="1"/>
    <rect x="10" y="12" width="14" height="14" class="lid"/><text x="32" y="23" font-size="10">LID (light well)</text>
    <rect x="180" y="12" width="14" height="14" class="roomAlt"/><text x="202" y="23" font-size="10">Stair / Elevator</text>
    <circle cx="17" cy="42" r="8" class="bubble"/><text x="32" y="46" font-size="10">Grid reference</text>
    <text x="10" y="62" font-size="9" fill="#555">Units: E, P, D&#215;2, C, F, J, A&#215;3, O&#215;2, B&#215;4, N, M&#215;2</text>
  </g>
</svg>
