<svg width="964" height="482" viewBox="0 0 964 482" xmlns="http://www.w3.org/2000/svg">
  <!-- Background -->
  <rect width="964" height="482" fill="#f5f5f5"/>
  
  <!-- Building Outline -->
  <rect x="68" y="60" width="828" height="362" fill="none" stroke="#2d3748" stroke-width="2"/>
  
  <!-- Street Label -->
  <text x="482" y="30" text-anchor="middle" font-family="Arial, sans-serif" font-size="14" font-weight="bold" fill="#2d3748">JAMES M WOOD BOULEVARD</text>
  
  <!-- Side Label -->
  <text x="30" y="241" text-anchor="middle" font-family="Arial, sans-serif" font-size="12" font-weight="bold" fill="#2d3748" transform="rotate(-90, 30, 241)">SOUTH VERMONT AVENUE</text>
  
  <!-- North Arrow -->
  <g transform="translate(920, 350)">
    <polygon points="0,-15 10,10 0,5 -10,10" fill="#2d3748"/>
    <text x="0" y="30" text-anchor="middle" font-family="Arial, sans-serif" font-size="12" font-weight="bold" fill="#2d3748">N</text>
  </g>
  
  <!-- Top Row Units (232-239) -->
  <rect x="520" y="80" width="55" height="50" fill="#ffffff" stroke="#2d3748" stroke-width="1" data-unit="232" class="unit-rect"/>
  <rect x="465" y="80" width="55" height="50" fill="#ffffff" stroke="#2d3748" stroke-width="1" data-unit="233" class="unit-rect"/>
  <rect x="410" y="80" width="55" height="50" fill="#ffffff" stroke="#2d3748" stroke-width="1" data-unit="234" class="unit-rect"/>
  <rect x="355" y="80" width="55" height="50" fill="#ffffff" stroke="#2d3748" stroke-width="1" data-unit="235" class="unit-rect"/>
  <rect x="300" y="80" width="55" height="50" fill="#ffffff" stroke="#2d3748" stroke-width="1" data-unit="236" class="unit-rect"/>
  <rect x="245" y="80" width="55" height="50" fill="#ffffff" stroke="#2d3748" stroke-width="1" data-unit="237" class="unit-rect"/>
  <rect x="190" y="80" width="55" height="50" fill="#ffffff" stroke="#2d3748" stroke-width="1" data-unit="238" class="unit-rect"/>
  <rect x="135" y="80" width="55" height="50" fill="#ffffff" stroke="#2d3748" stroke-width="1" data-unit="239" class="unit-rect"/>
  
  <!-- Corner Units -->
  <rect x="88" y="140" width="47" height="40" fill="#ffffff" stroke="#2d3748" stroke-width="1" data-unit="201" class="unit-rect"/>
  <rect x="88" y="190" width="47" height="45" fill="#ffffff" stroke="#2d3748" stroke-width="1" data-unit="202" class="unit-rect"/>
  <rect x="135" y="190" width="55" height="45" fill="#ffffff" stroke="#2d3748" stroke-width="1" data-unit="203" class="unit-rect"/>
  
  <!-- Unit 204 (Available - Green) -->
  <rect x="190" y="150" width="55" height="65" fill="#10b981" stroke="#059669" stroke-width="2" data-unit="204" class="unit-rect available"/>
  
  <!-- Center Left Units -->
  <rect x="245" y="150" width="55" height="65" fill="#ffffff" stroke="#2d3748" stroke-width="1" data-unit="205" class="unit-rect"/>
  <rect x="300" y="150" width="55" height="65" fill="#ffffff" stroke="#2d3748" stroke-width="1" data-unit="206" class="unit-rect"/>
  <rect x="355" y="150" width="55" height="65" fill="#ffffff" stroke="#2d3748" stroke-width="1" data-unit="207" class="unit-rect"/>
  
  <!-- Elevators -->
  <rect x="410" y="170" width="20" height="35" fill="#cbd5e0" stroke="#2d3748" stroke-width="1"/>
  <text x="420" y="192" text-anchor="middle" font-family="Arial, sans-serif" font-size="10" font-weight="bold" fill="#2d3748">E</text>
  <rect x="430" y="170" width="20" height="35" fill="#cbd5e0" stroke="#2d3748" stroke-width="1"/>
  <text x="440" y="192" text-anchor="middle" font-family="Arial, sans-serif" font-size="10" font-weight="bold" fill="#2d3748">E</text>
  
  <!-- Unit 231 -->
  <rect x="520" y="140" width="55" height="50" fill="#ffffff" stroke="#2d3748" stroke-width="1" data-unit="231" class="unit-rect"/>
  
  <!-- Center Units Row 1 -->
  <rect x="465" y="190" width="55" height="50" fill="#ffffff" stroke="#2d3748" stroke-width="1" data-unit="230" class="unit-rect"/>
  <rect x="520" y="190" width="55" height="50" fill="#ffffff" stroke="#2d3748" stroke-width="1" data-unit="229" class="unit-rect"/>
  <rect x="575" y="190" width="55" height="50" fill="#ffffff" stroke="#2d3748" stroke-width="1" data-unit="228" class="unit-rect"/>
  <rect x="630" y="190" width="55" height="50" fill="#ffffff" stroke="#2d3748" stroke-width="1" data-unit="227" class="unit-rect"/>
  <rect x="685" y="190" width="55" height="50" fill="#ffffff" stroke="#2d3748" stroke-width="1" data-unit="226" class="unit-rect"/>
  
  <!-- Unit 225 -->
  <rect x="740" y="190" width="55" height="50" fill="#ffffff" stroke="#2d3748" stroke-width="1" data-unit="225" class="unit-rect"/>
  
  <!-- Elevator (Right) -->
  <rect x="795" y="170" width="20" height="35" fill="#cbd5e0" stroke="#2d3748" stroke-width="1"/>
  <text x="805" y="192" text-anchor="middle" font-family="Arial, sans-serif" font-size="10" font-weight="bold" fill="#2d3748">E</text>
  
  <!-- Bottom Row Units -->
  <rect x="355" y="250" width="55" height="50" fill="#ffffff" stroke="#2d3748" stroke-width="1" data-unit="208" class="unit-rect"/>
  <rect x="410" y="250" width="55" height="50" fill="#ffffff" stroke="#2d3748" stroke-width="1" data-unit="209" class="unit-rect"/>
  <rect x="465" y="250" width="55" height="50" fill="#ffffff" stroke="#2d3748" stroke-width="1" data-unit="210" class="unit-rect"/>
  
  <!-- Unit 211 (Available - Green) -->
  <rect x="520" y="250" width="55" height="50" fill="#10b981" stroke="#059669" stroke-width="2" data-unit="211" class="unit-rect available"/>
  
  <rect x="575" y="250" width="55" height="50" fill="#ffffff" stroke="#2d3748" stroke-width="1" data-unit="212" class="unit-rect"/>
  <rect x="630" y="250" width="55" height="50" fill="#ffffff" stroke="#2d3748" stroke-width="1" data-unit="213" class="unit-rect"/>
  <rect x="685" y="250" width="55" height="50" fill="#ffffff" stroke="#2d3748" stroke-width="1" data-unit="214" class="unit-rect"/>
  <rect x="740" y="250" width="55" height="50" fill="#ffffff" stroke="#2d3748" stroke-width="1" data-unit="215" class="unit-rect"/>
  <rect x="795" y="250" width="55" height="50" fill="#ffffff" stroke="#2d3748" stroke-width="1" data-unit="216" class="unit-rect"/>
  
  <!-- Right Side Units -->
  <rect x="815" y="300" width="55" height="50" fill="#ffffff" stroke="#2d3748" stroke-width="1" data-unit="217" class="unit-rect"/>
  <rect x="815" y="240" width="55" height="50" fill="#ffffff" stroke="#2d3748" stroke-width="1" data-unit="218" class="unit-rect"/>
  <rect x="815" y="190" width="55" height="50" fill="#ffffff" stroke="#2d3748" stroke-width="1" data-unit="219" class="unit-rect"/>
  <rect x="815" y="140" width="55" height="50" fill="#ffffff" stroke="#2d3748" stroke-width="1" data-unit="220" class="unit-rect"/>
  <rect x="815" y="110" width="55" height="30" fill="#ffffff" stroke="#2d3748" stroke-width="1" data-unit="221" class="unit-rect"/>
  <rect x="760" y="80" width="55" height="30" fill="#ffffff" stroke="#2d3748" stroke-width="1" data-unit="222" class="unit-rect"/>
  <rect x="705" y="80" width="55" height="30" fill="#ffffff" stroke="#2d3748" stroke-width="1" data-unit="223" class="unit-rect"/>
  <rect x="760" y="140" width="55" height="50" fill="#ffffff" stroke="#2d3748" stroke-width="1" data-unit="224" class="unit-rect"/>
</svg>