<svg xmlns="http://www.w3.org/2000/svg" viewBox="0 0 300 240" width="300" height="240" xml:space="preserve">
	<polygon fill="#000000" points="108,47.2 112.9,47.2 112.9,2.2 126.1,2.2 126.1,1 94.8,1 94.8,2.2 108,2.2"/>
    <polygon fill="#000000" points="136.5,23.8 162.7,23.8 162.7,47.2 167.6,47.2 167.6,1 162.7,1 162.7,22.6 136.5,22.6 136.5,1 131.6,1 131.6,47.2 136.5,47.2"/>
    <polygon fill="#000000" points="205.2,46 182.4,46 182.4,23.8 203.2,23.8 203.2,22.6 182.4,22.6 182.4,2.2 204.6,2.2 204.6,1 177.5,1 177.5,47.2 205.2,47.2"/>
    <path fill="#000000" d="M17.4,125.5c0-24.4,15.8-40.4,35-43.9c-2.6-0.6-5.4-0.9-8.2-0.9C21.8,80.8,1,99.8,1,125.5c0,25.7,20.8,44.7,43.2,44.7
		c2.8,0,5.6-0.2,8.2-0.9C33.2,165.9,17.4,149.7,17.4,125.5z"/>
    <path fill="#000000" d="M101,159.9c0-43.9,17.5-73.1,41.5-78.3c-2.6-0.6-5.2-0.9-8-0.9c-14.3,0-26.9,8.8-35.9,23.3c-7.5-14.2-22.2-23.3-37.7-23.3
		c-2.8,0-5.6,0.2-8.4,0.9c19.2,3.5,35.2,19.5,35.2,43.9c0,24.2-16,40.4-35.2,43.9c2.8,0.6,5.6,0.9,8.4,0.9c3.5,0,6.9-0.4,10.2-1.5
		l-40,66.8h17.7L85.4,173c3.7,38.6,23.8,66,49.1,66c2.8,0,5.4-0.2,8-0.9C118.5,232.9,101,203.8,101,159.9z"/>
    <path fill="#000000" d="M249.3,80.8c-2.8,0-5.4,0.2-8,0.9c24,5.2,41.5,34.4,41.5,78.3c0,43.9-17.5,73.1-41.5,78.3c2.6,0.6,5.2,0.9,8,0.9
		c27.9,0,49.7-33.7,49.7-79.1C299,114.5,277.2,80.8,249.3,80.8z"/>
    <path fill="#000000" d="M200,167.9c0.2-2.6,0.2-5.3,0.2-8c0-2.7-0.1-5.4-0.2-8c2-39.4,18.8-65.4,41.3-70.3c-2.6-0.6-5.2-0.9-8-0.9
		c-17.6,0-32.6,13.2-41.4,34.2c-8.8-21-23.9-34.2-41.4-34.2c-2.8,0-5.4,0.2-8,0.9c22.5,4.9,39.3,30.8,41.3,70.2
		c-0.2,2.6-0.2,5.3-0.2,8c0,2.7,0.1,5.4,0.2,8c-2,39.4-18.8,65.4-41.3,70.2c2.6,0.6,5.2,0.9,8,0.9c17.4,0,32.5-13.2,41.4-34.2
		c8.8,21,23.8,34.2,41.4,34.2c2.8,0,5.4-0.2,8-0.9C218.8,233.3,202,207.3,200,167.9z"/>
</svg>