<svg xmlns="http://www.w3.org/2000/svg" viewBox="0 0 300 238" width="300" height="238" xml:space="preserve">
<style type="text/css">.st0{fill:#ffffff;}</style>
    <polygon class="st0" points="94.8,1.2 108,1.2 108,46.2 112.9,46.2 112.9,1.2 126.1,1.2 126.1,0 94.8,0"/>
    <polygon class="st0" points="162.7,21.6 136.5,21.6 136.5,0 131.6,0 131.6,46.2 136.5,46.2 136.5,22.8 162.7,22.8 162.7,46.2 167.6,46.2 167.6,0 162.7,0"/>
    <polygon class="st0" points="182.4,45 182.4,22.8 203.2,22.8 203.2,21.6 182.4,21.6 182.4,1.2 204.6,1.2 204.6,0 177.5,0 177.5,46.2 205.2,46.2 205.2,45"/>
    <path class="st0" d="M52.4,169.3c-19.2-3.4-35-19.6-35-43.8c0-24.4,15.8-40.4,35-43.9c-2.6-0.6-5.4-0.9-8.2-0.9
	C21.8,80.8,1,99.8,1,125.5s20.8,44.7,43.2,44.7C47,170.2,49.8,170,52.4,169.3z"/>
    <path class="st0" d="M98.6,104c-7.5-14.2-22.2-23.3-37.7-23.3c-2.8,0-5.6,0.2-8.4,0.9c19.2,3.5,35.2,19.5,35.2,43.9
	c0,24.2-16,40.4-35.2,43.9c2.8,0.6,5.6,0.9,8.4,0.9c3.5,0,6.9-0.4,10.2-1.5L29.6,238h17.7l38.1-65c3.3,34.3,19.5,59.7,40.8,65H142
	c-23.7-5.5-41-34.5-41-78.1c0-43.9,17.5-73.1,41.5-78.3c-2.6-0.6-5.2-0.9-8-0.9C120.2,80.7,107.6,89.5,98.6,104z"/>
    <path class="st0" d="M249.3,80.8c-2.8,0-5.4,0.2-8,0.9c24,5.2,41.5,34.4,41.5,78.3c0,43.1-16.9,72-40.2,78h15.7
	c23.5-6.4,40.7-37.5,40.7-77.9C299,114.5,277.2,80.8,249.3,80.8z"/>
    <path class="st0" d="M200,167.9c-0.1-2.8-0.1-13.4,0-16c2-39.4,18.8-65.4,41.3-70.3c-2.6-0.6-5.2-0.9-8-0.9
	c-17.6,0-32.6,13.2-41.4,34.2c-8.8-21-23.9-34.2-41.4-34.2c-2.8,0-5.4,0.2-8,0.9c22.5,4.9,39.3,30.8,41.3,70.2
	c0.1,2.8,0.1,13.5,0,16c-2,39.3-18.8,65.3-41.2,70.2h15.8c14-3.3,26-15.5,33.5-33.3c7.4,17.8,19.3,29.9,33.5,33.3h15.8 C218.8,233.2,202,207.3,200,167.9z"/>
</svg>